# xmcd
#
# Track frame offsets:
#	150
#	13756
#	31247
#	46596
#	64933
#	79963
#	95670
#	108249
#	122323
#	137178
#	152708
#	166116
#	181667
#	197667
#
# Disc length: 2853 seconds
#
# Revision: 2
# Processed by: cddbd v1.4PL0 Copyright (c) Steve Scherf et al.
# Submitted via: EasyCDDAExtractor 6.0.0.1
#
DISCID=a90b230e
DTITLE=Various Artist - Bailão Bom Demais
DYEAR=2003
DGENRE=Country
TTITLE0=Banca Corpo and Alma - Bailão Bom Demais
TTITLE1=Banca Corpo and Alma - Karina
TTITLE2=Banca Corpo and Alma - Baila Comigo
TTITLE3=Banca Corpo and Alma - Fogo Na Vanera
TTITLE4=Banca Corpo and Alma - Swing De Vanera
TTITLE5=Banca Corpo and Alma - Estoy Diciendo Adiós
TTITLE6=Banca Corpo and Alma - Namoro Bom
TTITLE7=Banca Corpo and Alma - Tô Querendo Namorar
TTITLE8=Banca Corpo and Alma - Peruca De Boi
TTITLE9=Banca Corpo and Alma - Lua De Mel
TTITLE10=Banca Corpo and Alma - Som Que Chora
TTITLE11=Banca Corpo and Alma - Xote Dos Carentes
TTITLE12=Banca Corpo and Alma - Sem Querer
TTITLE13=Banda Corpo and Alma - Deu Quebradeira
EXTD=by Flávio Abrahão Biasuz\nTapira - Paraná
EXTT0=
EXTT1=
EXTT2=
EXTT3=
EXTT4=
EXTT5=
EXTT6=
EXTT7=
EXTT8=
EXTT9=
EXTT10=
EXTT11=
EXTT12=
EXTT13=
PLAYORDER=
